<svg xmlns="http://www.w3.org/2000/svg" width="2100" height="1500" viewBox="0 0 2100 1500">
  <defs>
    <style>
      .cls-1 {
        fill: #1caa6f;
      }

      .cls-1, .cls-2 {
        fill-rule: evenodd;
      }

      .cls-2 {
        fill: #fbf6f5;
      }
    </style>
  </defs>
  <path id="G_store_" data-name="G  store " class="cls-1" d="M1010.15,798.176q-1.86-25.1-1.85-37.7,0-4.687.53-14.16t0.54-14.16c0-2.148-.81-3.222-2.44-3.222q-3.12,0-9.375.439t-9.375.439q-2.929,0-8.643-.537t-8.545-.537a4.535,4.535,0,0,0-1.562.2q-1.27.39-1.27,2.246a138.3,138.3,0,0,0,1.27,16.406q1.464,13.183,1.757,16.406-12.3,4.98-22.265,4.981-15.725,0-24.317-9.571-8.3-9.276-8.3-25.195,0-15.037,8.007-25.1,8.594-10.935,23.243-10.937a34,34,0,0,1,16.406,4,41.311,41.311,0,0,1,9.766,7.422q3.9,4.005,4.492,4,2.538,0,11.279-10.888t8.74-14.014q0-.975-1.66-3.32a52.943,52.943,0,0,0-22.266-17.578,69.569,69.569,0,0,0-27.929-5.664q-30.567,0-49.707,21.093-18.557,20.412-18.555,51.368,0,30.273,19.141,50.1,19.335,20.12,49.511,20.117,18.75,0,39.161-8.007,2.051,0.782,10.888,2.929t10.7,2.149q2.925,0,2.73-2.637Zm81.78-96.485q-15.03,0-25.04,8.594t-10.01,22.852a27.3,27.3,0,0,0,6.34,17.871q6.345,7.716,23.34,13.183,9.285,2.931,12.5,5.469t3.23,7.422q0,9.18-10.94,9.18-12.8,0-15.53-14.746l-21.87,3.515q3.6,29.4,36.91,29.4,17.67,0,27.54-9.278a30.256,30.256,0,0,0,9.86-22.949,26.97,26.97,0,0,0-3.61-14.013,24.7,24.7,0,0,0-8.89-9.131q-5.265-3.027-16.6-7.032-10.065-3.515-13.28-6.054t-3.22-7.422q0-8.592,8.59-8.594,10.545,0,14.45,13.379l19.63-5.859q-7.125-25.782-33.4-25.782h0Zm54.98,2.051h-10.93v21.68h10.93V764.68q0,15.723,1.86,22.949a21.01,21.01,0,0,0,8.5,12.012q6.63,4.784,19.14,4.785a77.5,77.5,0,0,0,16.79-2.051v-20.9c-3.12.131-5.73,0.2-7.81,0.2-3.9,0-6.69-.667-8.35-2a7.685,7.685,0,0,1-2.93-4.981,117.129,117.129,0,0,1-.44-13.037v-36.23h18.17v-21.68h-18.17V672.59l-26.76.879v30.273Zm93.71-1.953q-40.095,0-40.09,51.27,0,51.368,40.09,51.367,39.99,0,39.99-51.367,0-51.27-39.99-51.27h0Zm9.14,76.5q-2.43,6.995-9.14,6.993-7,0-9.34-7.042t-2.33-25.136q0-19.56,2.72-25.868t8.95-6.309q6.405,0,8.99,6.651t2.58,25.526Q1252.19,771.3,1249.76,778.292Zm46.96,24.083h27.54V759.9q0-30.469,20.12-30.469a39.363,39.363,0,0,1,4.59.39V702.961a26.134,26.134,0,0,0-4.69-.488q-16.8,0-23.34,25.1V703.742h-24.22v98.633Zm125.94-88.623a36.949,36.949,0,0,0-28.04-11.963q-18.63,0-29.7,13.525t-11.07,39.209q0,22.756,10.43,36.329t30.53,13.574q32.58,0,39.12-34.375l-24.52-1.563q-1.545,16.8-14.1,16.8a11.521,11.521,0,0,1-9.44-4.475q-3.6-4.477-3.6-17.713v-5.449h51.66Q1433.93,725.715,1422.66,713.752Zm-40.2,27.978q0.105-21.776,12.75-21.777,12.84,0,12.84,19.043c0,0.652-.04,1.563-0.1,2.734h-25.49Z"/>
  <path id="G_store_copy" data-name="G  store  copy" class="cls-2" d="M1091.93,701.691q-15.03,0-25.04,8.594t-10.01,22.852a27.3,27.3,0,0,0,6.34,17.871q6.345,7.716,23.34,13.183,9.285,2.931,12.5,5.469t3.23,7.422q0,9.18-10.94,9.18-12.8,0-15.53-14.746l-21.87,3.515q3.6,29.4,36.91,29.4,17.67,0,27.54-9.278a30.256,30.256,0,0,0,9.86-22.949,26.97,26.97,0,0,0-3.61-14.013,24.7,24.7,0,0,0-8.89-9.131q-5.265-3.027-16.6-7.032-10.065-3.515-13.28-6.054t-3.22-7.422q0-8.592,8.59-8.594,10.545,0,14.45,13.379l19.63-5.859q-7.125-25.782-33.4-25.782h0Zm54.98,2.051h-10.93v21.68h10.93V764.68q0,15.723,1.86,22.949a21.01,21.01,0,0,0,8.5,12.012q6.63,4.784,19.14,4.785a77.5,77.5,0,0,0,16.79-2.051v-20.9c-3.12.131-5.73,0.2-7.81,0.2-3.9,0-6.69-.667-8.35-2a7.685,7.685,0,0,1-2.93-4.981,117.129,117.129,0,0,1-.44-13.037v-36.23h18.17v-21.68h-18.17V672.59l-26.76.879v30.273Zm93.71-1.953q-40.095,0-40.09,51.27,0,51.368,40.09,51.367,39.99,0,39.99-51.367,0-51.27-39.99-51.27h0Zm9.14,76.5q-2.43,6.995-9.14,6.993-7,0-9.34-7.042t-2.33-25.136q0-19.56,2.72-25.868t8.95-6.309q6.405,0,8.99,6.651t2.58,25.526Q1252.19,771.3,1249.76,778.292Zm46.96,24.083h27.54V759.9q0-30.469,20.12-30.469a39.363,39.363,0,0,1,4.59.39V702.961a26.134,26.134,0,0,0-4.69-.488q-16.8,0-23.34,25.1V703.742h-24.22v98.633Zm125.94-88.623a36.949,36.949,0,0,0-28.04-11.963q-18.63,0-29.7,13.525t-11.07,39.209q0,22.756,10.43,36.329t30.53,13.574q32.58,0,39.12-34.375l-24.52-1.563q-1.545,16.8-14.1,16.8a11.521,11.521,0,0,1-9.44-4.475q-3.6-4.477-3.6-17.713v-5.449h51.66Q1433.93,725.715,1422.66,713.752Zm-40.2,27.978q0.105-21.776,12.75-21.777,12.84,0,12.84,19.043c0,0.652-.04,1.563-0.1,2.734h-25.49Z"/>
</svg>
